<svg width="176" height="201" viewBox="0 0 176 201" fill="none" xmlns="http://www.w3.org/2000/svg">
<path d="M153.598 146.652H89.5176L104.337 133.512L98.5328 127.571L71.1079 151.896L98.5328 176.216L104.337 170.275L89.5063 157.13H153.598C159.895 157.13 165.02 162.017 165.02 168.023V190.533H58.7686V21.5328C58.7686 9.84558 48.7964 0.259236 36.5364 0.167423L7.20309 0C5.26641 0.0162023 3.45997 0.723702 2.11789 1.99288C0.753153 3.28366 0 5.0119 0 6.84816V150.276C0 154.051 3.22214 157.124 7.18044 157.124H35.8739V146.652H10.9802V10.4937L36.4571 10.6395C42.7089 10.6881 47.7941 15.5704 47.7941 21.5328V194.152C47.7941 197.927 51.0162 201 54.9745 201H168.82C172.778 201 176 197.927 176 194.152V168.023C176 156.244 165.949 146.658 153.598 146.658V146.652Z" fill="url(#paint0_linear_2_310)"/>
<defs>
<linearGradient id="paint0_linear_2_310" x1="0" y1="100.497" x2="176" y2="100.497" gradientUnits="userSpaceOnUse">
<stop stop-color="#5AA9F0"/>
<stop offset="0.11" stop-color="#5485F2"/>
<stop offset="0.25" stop-color="#4F5CF5"/>
<stop offset="0.36" stop-color="#4B43F7"/>
<stop offset="0.43" stop-color="#4A3AF8"/>
</linearGradient>
</defs>
</svg>
