<svg width="949" height="162" viewBox="0 0 949 162" fill="none" xmlns="http://www.w3.org/2000/svg">
<path d="M209.65 19.8999V128.07H187.38V19.8999H209.65Z" fill="white"/>
<path d="M221.74 88.3001C221.74 64.1201 238.76 46.6201 262.15 46.6201C285.54 46.6201 302.56 64.1201 302.56 88.3001C302.56 112.48 285.54 129.98 262.15 129.98C238.76 129.98 221.74 112.48 221.74 88.3001ZM262.15 108.66C272.33 108.66 279.65 100.07 279.65 88.1401C279.65 76.2101 272.33 67.6201 262.15 67.6201C251.97 67.6201 244.65 76.2101 244.65 88.1401C244.65 100.07 251.97 108.66 262.15 108.66Z" fill="white"/>
<path d="M311.78 88.3001C311.78 64.1201 328.8 46.6201 352.19 46.6201C375.58 46.6201 392.6 64.1201 392.6 88.3001C392.6 112.48 375.58 129.98 352.19 129.98C328.8 129.98 311.78 112.48 311.78 88.3001ZM352.19 108.66C362.37 108.66 369.69 100.07 369.69 88.1401C369.69 76.2101 362.37 67.6201 352.19 67.6201C342.01 67.6201 334.69 76.2101 334.69 88.1401C334.69 100.07 342.01 108.66 352.19 108.66Z" fill="white"/>
<path d="M426.32 117.73V159.89H404.05V48.5301H421.23L425.05 58.7101C430.78 51.0701 439.21 46.6201 449.23 46.6201C469.27 46.6201 483.91 63.9601 483.91 87.6601C483.91 111.36 469.75 129.97 450.5 129.97C440.8 129.97 432.37 125.36 426.32 117.72V117.73ZM443.82 108.34C454 108.34 461.32 99.9101 461.32 88.1401C461.32 76.3701 454 67.9401 443.82 67.9401C433.64 67.9401 426.32 76.3701 426.32 88.1401C426.32 99.9101 433.64 108.34 443.82 108.34Z" fill="white"/>
<path d="M535.13 129.98C513.34 129.98 496 113.28 496 88.3001C496 63.3201 512.86 46.6201 534.5 46.6201C552.48 46.6201 567.27 58.3901 570.45 74.6201L556.45 79.0701C555.18 67.6201 546.11 59.0301 534.5 59.0301C520.5 59.0301 509.68 71.1201 509.68 88.3001C509.68 105.48 520.5 117.25 534.5 117.25C546.59 117.25 556.13 108.98 557.09 96.2501L571.73 100.7C568.87 117.88 553.6 129.97 535.14 129.97L535.13 129.98Z" fill="white"/>
<path d="M587.47 48.5301H598.29L599.88 61.7301C603.7 52.5001 611.33 46.6201 620.56 46.6201C623.74 46.6201 626.76 47.4201 629.47 48.5301L628.83 63.4801C625.65 61.5701 621.83 60.9301 619.29 60.9301C608.15 60.9301 600.2 69.8401 600.2 82.2501V128.06H587.47V48.5301Z" fill="white"/>
<path d="M656.19 48.5298L679.42 109.62L701.05 48.5298H715.69L680.69 139.52C675.76 152.25 667.01 160.52 656.19 161.79L652.69 148.43C659.69 147.79 665.1 144.29 667.96 136.98L672.41 125.53L641.23 48.5398H656.18L656.19 48.5298Z" fill="white"/>
<path d="M740.19 114.71V159.89H727.46V48.5301H738.28L739.87 61.8901C745.91 52.3501 755.78 46.6201 768.19 46.6201C789.51 46.6201 806.05 63.8001 806.05 87.9801C806.05 112.16 788.71 129.98 768.19 129.98C756.26 129.98 746.4 124.25 740.19 114.71ZM766.28 117.26C781.55 117.26 792.69 105.17 792.69 88.3101C792.69 71.4501 781.55 59.0401 766.28 59.0401C751.01 59.0401 739.87 71.2901 739.87 88.3101C739.87 105.33 751.01 117.26 766.28 117.26Z" fill="white"/>
<path d="M813.68 48.5299H818.77C823.7 48.5299 827.36 44.3899 827.36 38.6699V28.1699H839.45V48.5299H856.95V60.9399H839.45V107.07C839.45 112.96 843.75 116.93 850.27 116.93C852.5 116.93 855.04 116.61 856.95 115.98L857.27 128.71C854.72 129.51 851.38 129.98 848.36 129.98C835.47 129.98 826.73 121.87 826.73 109.62V60.9399H813.69V48.5299H813.68Z" fill="white"/>
<path d="M868.72 88.3001C868.72 64.1201 885.42 46.6201 908.49 46.6201C931.56 46.6201 948.26 64.1201 948.26 88.3001C948.26 112.48 931.56 129.98 908.49 129.98C885.42 129.98 868.72 112.48 868.72 88.3001ZM908.49 117.25C923.76 117.25 934.9 105.16 934.9 88.3001C934.9 71.4401 923.76 59.0301 908.49 59.0301C893.22 59.0301 882.08 71.2801 882.08 88.3001C882.08 105.32 893.22 117.25 908.49 117.25Z" fill="white"/>
<path d="M108.94 109.06H63.49L74 99.29L69.88 94.87L50.43 112.96L69.88 131.04L74 126.62L63.48 116.84H108.94C113.41 116.84 117.04 120.47 117.04 124.94V141.68H41.68V16.01C41.68 7.32 34.61 0.19 25.91 0.13L5.11 0C3.73 0.01 2.45 0.54 1.5 1.48C0.53 2.44 0 3.73 0 5.09V111.75C0 114.56 2.28 116.84 5.09 116.84H25.44V109.05H7.79V7.8L25.86 7.91C30.29 7.94 33.9 11.58 33.9 16.01V144.38C33.9 147.19 36.18 149.47 38.99 149.47H119.73C122.54 149.47 124.82 147.19 124.82 144.38V124.95C124.82 116.19 117.69 109.06 108.93 109.06H108.94Z" fill="white"/>
</svg>
